<svg width="30" height="30" viewBox="0 0 30 30" fill="none" xmlns="http://www.w3.org/2000/svg">
<path d="M14.8565 9.92821C12.1958 9.92821 10.0244 12.0996 10.0244 14.7603C10.0244 17.421 12.1958 19.5923 14.8565 19.5923C17.5172 19.5923 19.6886 17.421 19.6886 14.7603C19.6886 12.0996 17.5172 9.92821 14.8565 9.92821ZM29.349 14.7603C29.349 12.7593 29.3672 10.7764 29.2548 8.7791C29.1424 6.45913 28.6132 4.40016 26.9167 2.70368C25.2166 1.00358 23.1613 0.477964 20.8413 0.365591C18.8403 0.253217 16.8575 0.271342 14.8601 0.271342C12.8591 0.271342 10.8763 0.253217 8.87895 0.365591C6.55898 0.477964 4.50001 1.00721 2.80354 2.70368C1.10344 4.40378 0.577817 6.45913 0.465444 8.7791C0.353071 10.7801 0.371195 12.7629 0.371195 14.7603C0.371195 16.7576 0.353071 18.7441 0.465444 20.7414C0.577817 23.0614 1.10706 25.1204 2.80354 26.8168C4.50364 28.5169 6.55898 29.0426 8.87895 29.1549C10.8799 29.2673 12.8628 29.2492 14.8601 29.2492C16.8611 29.2492 18.8439 29.2673 20.8413 29.1549C23.1613 29.0426 25.2202 28.5133 26.9167 26.8168C28.6168 25.1167 29.1424 23.0614 29.2548 20.7414C29.3708 18.7441 29.349 16.7612 29.349 14.7603V14.7603ZM14.8565 22.195C10.7422 22.195 7.42172 18.8746 7.42172 14.7603C7.42172 10.6459 10.7422 7.32549 14.8565 7.32549C18.9708 7.32549 22.2913 10.6459 22.2913 14.7603C22.2913 18.8746 18.9708 22.195 14.8565 22.195ZM22.5958 8.75735C21.6351 8.75735 20.8594 7.98161 20.8594 7.021C20.8594 6.06039 21.6351 5.28465 22.5958 5.28465C23.5564 5.28465 24.3321 6.06039 24.3321 7.021C24.3324 7.2491 24.2877 7.47502 24.2005 7.68581C24.1134 7.8966 23.9855 8.08813 23.8242 8.24942C23.6629 8.41071 23.4714 8.5386 23.2606 8.62576C23.0498 8.71292 22.8239 8.75763 22.5958 8.75735V8.75735Z" fill="#17192B"/>
</svg>
