<svg width="30" height="29" viewBox="0 0 30 29" fill="none" xmlns="http://www.w3.org/2000/svg">
<path d="M24.0622 9.79207C24.0622 8.78582 23.7037 7.92736 22.9868 7.2167C22.2698 6.50604 21.4082 6.1507 20.402 6.1507C19.3957 6.1507 18.5373 6.50918 17.8266 7.22613C17.1159 7.94309 16.7606 8.7984 16.7606 9.79207C16.7606 10.7983 17.1159 11.6568 17.8266 12.3674C18.5373 13.0781 19.3957 13.4334 20.402 13.4334C21.4082 13.4334 22.2698 13.0781 22.9868 12.3674C23.7037 11.6568 24.0622 10.7983 24.0622 9.79207ZM12.5532 20.886C12.5532 21.93 12.1884 22.8136 11.4589 23.5368C10.7294 24.2601 9.84892 24.6217 8.81751 24.6217C8.11313 24.6217 7.46536 24.4393 6.87419 24.0745C6.28302 23.7098 5.8302 23.2255 5.51575 22.6218C6.16981 22.8733 6.78614 23.1249 7.36474 23.3764C8.11942 23.6783 8.87411 23.6689 9.6288 23.3481C10.3835 23.0274 10.9181 22.4834 11.2325 21.7161C11.5344 20.9614 11.525 20.2068 11.2042 19.4521C10.8835 18.6974 10.3395 18.1691 9.5722 17.8672L8.02509 17.2446C8.30181 17.1817 8.56595 17.1503 8.81751 17.1503C9.84892 17.1503 10.7294 17.5119 11.4589 18.2351C12.1884 18.9584 12.5532 19.842 12.5532 20.886ZM29.6091 5.43375V23.5462C29.6091 25.043 29.0777 26.3229 28.0149 27.3857C26.952 28.4486 25.6722 28.98 24.1754 28.98H6.0629C4.5661 28.98 3.28628 28.4486 2.22343 27.3857C1.16058 26.3229 0.62915 25.043 0.62915 23.5462V20.6596L3.87431 21.9614C4.12587 23.1186 4.7139 24.0745 5.63839 24.8292C6.56288 25.5839 7.62259 25.9612 8.81751 25.9612C10.1256 25.9612 11.264 25.521 12.2325 24.6405C13.201 23.7601 13.7481 22.6721 13.8739 21.3765L20.3831 16.622C22.2698 16.622 23.8767 15.9585 25.2037 14.6315C26.5307 13.3045 27.1941 11.7039 27.1941 9.8298C27.1941 7.94309 26.5307 6.33623 25.2037 5.00924C23.8767 3.68225 22.2698 3.01875 20.3831 3.01875C18.5215 3.01875 16.9304 3.67596 15.6097 4.99037C14.289 6.30479 13.6161 7.89277 13.5909 9.75434L9.34579 15.8296C9.23259 15.817 9.05649 15.8107 8.81751 15.8107C7.87415 15.8107 7.01255 16.0434 6.2327 16.5088L0.62915 14.2636V5.43375C0.62915 3.93695 1.16058 2.65713 2.22343 1.59428C3.28628 0.531426 4.5661 0 6.0629 0H24.1754C25.6722 0 26.952 0.531426 28.0149 1.59428C29.0777 2.65713 29.6091 3.93695 29.6091 5.43375ZM24.949 9.8298C24.949 11.0876 24.5024 12.1599 23.6094 13.0467C22.7163 13.9334 21.6409 14.3768 20.3831 14.3768C19.1253 14.3768 18.053 13.9334 17.1662 13.0467C16.2795 12.1599 15.8361 11.0876 15.8361 9.8298C15.8361 8.57199 16.2795 7.49656 17.1662 6.60352C18.053 5.71047 19.1253 5.26395 20.3831 5.26395C21.6535 5.26395 22.7321 5.70732 23.6188 6.59408C24.5056 7.48084 24.949 8.55941 24.949 9.8298Z" fill="#17192B"/>
</svg>
