<svg width="30" height="29" viewBox="0 0 30 29" fill="none" xmlns="http://www.w3.org/2000/svg">
<path d="M24.7591 9.09398C24.0548 9.40844 23.2938 9.62227 22.4762 9.73547C23.3315 9.23234 23.9164 8.49652 24.2309 7.52801C23.4133 8.00598 22.5705 8.32672 21.7027 8.49023C20.9354 7.66008 19.9732 7.245 18.816 7.245C17.7217 7.245 16.7878 7.63178 16.0142 8.40533C15.2406 9.17889 14.8539 10.1128 14.8539 11.2071C14.8539 11.5719 14.8853 11.8738 14.9482 12.1127C13.3256 12.0247 11.8037 11.6159 10.3823 10.8864C8.96101 10.1568 7.75351 9.18203 6.75984 7.96195C6.39507 8.59086 6.21269 9.2575 6.21269 9.96187C6.21269 11.3958 6.78499 12.4964 7.9296 13.2636C7.33843 13.2511 6.70952 13.0875 6.04288 12.7731V12.8108C6.04288 13.7542 6.35734 14.5938 6.98624 15.3296C7.61515 16.0654 8.3887 16.5214 9.30691 16.6975C8.94214 16.7981 8.6214 16.8484 8.34468 16.8484C8.18116 16.8484 7.93589 16.8232 7.60886 16.7729C7.873 17.5654 8.34154 18.2194 9.01447 18.7351C9.6874 19.2508 10.4515 19.515 11.3068 19.5275C9.84777 20.6596 8.20632 21.2256 6.38249 21.2256C6.05546 21.2256 5.74101 21.2067 5.43913 21.169C7.3007 22.3513 9.32577 22.9425 11.5144 22.9425C12.9231 22.9425 14.2438 22.7192 15.4765 22.2727C16.7091 21.8262 17.7657 21.2287 18.6462 20.4803C19.5266 19.7319 20.2845 18.8703 20.9197 17.8955C21.5549 16.9207 22.0265 15.9019 22.3347 14.839C22.6429 13.7762 22.7969 12.7165 22.7969 11.6599C22.7969 11.4335 22.7907 11.2637 22.7781 11.1505C23.5705 10.5845 24.2309 9.89898 24.7591 9.09398ZM29.5891 5.43375V23.5463C29.5891 25.043 29.0577 26.3229 27.9949 27.3857C26.932 28.4486 25.6522 28.98 24.1554 28.98H6.04288C4.54608 28.98 3.26626 28.4486 2.20341 27.3857C1.14056 26.3229 0.609131 25.043 0.609131 23.5463V5.43375C0.609131 3.93695 1.14056 2.65713 2.20341 1.59428C3.26626 0.531426 4.54608 0 6.04288 0H24.1554C25.6522 0 26.932 0.531426 27.9949 1.59428C29.0577 2.65713 29.5891 3.93695 29.5891 5.43375Z" fill="#17192B"/>
</svg>
