<svg width="42" height="29" viewBox="0 0 42 29" fill="none" xmlns="http://www.w3.org/2000/svg">
<path d="M16.765 19.826L27.897 14.076L16.765 8.257V19.826ZM21.02 0C23.596 0 26.0839 0.0345 28.4835 0.1035C30.8832 0.1725 32.6427 0.245333 33.762 0.322L35.441 0.414C35.4564 0.414 35.5867 0.4255 35.832 0.4485C36.0774 0.4715 36.2537 0.4945 36.361 0.5175C36.4684 0.5405 36.6485 0.575 36.9015 0.621C37.1545 0.667 37.373 0.728333 37.557 0.805C37.741 0.881667 37.9557 0.981333 38.201 1.104C38.4464 1.22667 38.684 1.37617 38.914 1.5525C39.144 1.72883 39.3664 1.932 39.581 2.162C39.673 2.254 39.7919 2.39583 39.9375 2.5875C40.0832 2.77917 40.3055 3.22767 40.6045 3.933C40.9035 4.63833 41.1067 5.41267 41.214 6.256C41.3367 7.23733 41.4325 8.28383 41.5015 9.3955C41.5705 10.5072 41.6127 11.3773 41.628 12.006V16.054C41.6434 18.2773 41.5054 20.5007 41.214 22.724C41.1067 23.5673 40.915 24.3302 40.639 25.0125C40.363 25.6948 40.1177 26.1663 39.903 26.427L39.581 26.818C39.3664 27.048 39.144 27.2512 38.914 27.4275C38.684 27.6038 38.4464 27.7495 38.201 27.8645C37.9557 27.9795 37.741 28.0753 37.557 28.152C37.373 28.2287 37.1545 28.29 36.9015 28.336C36.6485 28.382 36.4645 28.4165 36.3495 28.4395C36.2345 28.4625 36.0582 28.4855 35.8205 28.5085C35.5829 28.5315 35.4564 28.543 35.441 28.543C31.5924 28.8343 26.7854 28.98 21.02 28.98C17.846 28.9493 15.0899 28.8995 12.7515 28.8305C10.4132 28.7615 8.87604 28.704 8.14004 28.658L7.01304 28.566L6.18504 28.474C5.63304 28.3973 5.21521 28.3207 4.93154 28.244C4.64787 28.1673 4.25687 28.0063 3.75854 27.761C3.26021 27.5157 2.82704 27.2013 2.45904 26.818C2.36704 26.726 2.24821 26.5842 2.10254 26.3925C1.95687 26.2008 1.73454 25.7523 1.43554 25.047C1.13654 24.3417 0.933372 23.5673 0.826039 22.724C0.703372 21.7427 0.607539 20.6962 0.538539 19.5845C0.469539 18.4728 0.427372 17.6027 0.412039 16.974V12.926C0.396705 10.7027 0.534705 8.47933 0.826039 6.256C0.933372 5.41267 1.12504 4.64983 1.40104 3.9675C1.67704 3.28517 1.92237 2.81367 2.13704 2.553L2.45904 2.162C2.67371 1.932 2.89604 1.72883 3.12604 1.5525C3.35604 1.37617 3.59371 1.22667 3.83904 1.104C4.08437 0.981333 4.29904 0.881667 4.48304 0.805C4.66704 0.728333 4.88554 0.667 5.13854 0.621C5.39154 0.575 5.57171 0.5405 5.67904 0.5175C5.78637 0.4945 5.96271 0.4715 6.20804 0.4485C6.45337 0.4255 6.58371 0.414 6.59904 0.414C10.4477 0.138 15.2547 0 21.02 0Z" fill="#17192B"/>
</svg>
